<?xml version="1.0" encoding="UTF-8"?>
<svg id="Layer_1" xmlns="http://www.w3.org/2000/svg" version="1.1" viewBox="0 0 55 55">
  <!-- Generator: Adobe Illustrator 29.0.1, SVG Export Plug-In . SVG Version: 2.1.0 Build 192)  -->
  <defs>
    <style>
      .st0, .st1 {
        fill: #02a6e9;
        fill-rule: evenodd;
      }

      .st1 {
        isolation: isolate;
        opacity: .2;
      }
    </style>
  </defs>
  <g id="_xD83C__xDF81_-Assets">
    <g id="arrow">
      <path id="Rectangle" class="st1" d="M4.3,7l23.2,11h0l23.2-11c1.5-.7,3.3,0,4,1.4.2.4.3.8.3,1.3v6.4c0,1.2-.7,2.2-1.7,2.7l-25.8,12.2h0L1.7,18.8c-1-.5-1.7-1.6-1.7-2.7v-6.4c0-1.7,1.3-3,3-3s.9,0,1.3.3Z"/>
      <path id="Rectangle1" data-name="Rectangle" class="st0" d="M4.3,28l23.2,11h0l23.2-11c1.5-.7,3.3,0,4,1.4.2.4.3.8.3,1.3v6.4c0,1.2-.7,2.2-1.7,2.7l-25.8,12.2h0L1.7,39.8c-1-.5-1.7-1.6-1.7-2.7v-6.4c0-1.7,1.3-3,3-3s.9,0,1.3.3Z"/>
    </g>
  </g>
</svg>