<svg id="visual" viewBox="0 0 1920 1080" width="1920" height="1080" xmlns="http://www.w3.org/2000/svg" xmlns:xlink="http://www.w3.org/1999/xlink" version="1.1"><rect x="0" y="0" width="1920" height="1080" fill="#001220"></rect><path d="M0 670L26.7 635C53.3 600 106.7 530 160 490.3C213.3 450.7 266.7 441.3 320 472.3C373.3 503.3 426.7 574.7 480 617C533.3 659.3 586.7 672.7 640 657C693.3 641.3 746.7 596.7 800 583C853.3 569.3 906.7 586.7 960 608C1013.3 629.3 1066.7 654.7 1120 652.3C1173.3 650 1226.7 620 1280 618.3C1333.3 616.7 1386.7 643.3 1440 637C1493.3 630.7 1546.7 591.3 1600 555.5C1653.3 519.7 1706.7 487.3 1760 498.7C1813.3 510 1866.7 565 1893.3 592.5L1920 620L1920 1081L1893.3 1081C1866.7 1081 1813.3 1081 1760 1081C1706.7 1081 1653.3 1081 1600 1081C1546.7 1081 1493.3 1081 1440 1081C1386.7 1081 1333.3 1081 1280 1081C1226.7 1081 1173.3 1081 1120 1081C1066.7 1081 1013.3 1081 960 1081C906.7 1081 853.3 1081 800 1081C746.7 1081 693.3 1081 640 1081C586.7 1081 533.3 1081 480 1081C426.7 1081 373.3 1081 320 1081C266.7 1081 213.3 1081 160 1081C106.7 1081 53.3 1081 26.7 1081L0 1081Z" fill="#02a6e9"></path><path d="M0 610L26.7 626.7C53.3 643.3 106.7 676.7 160 686.7C213.3 696.7 266.7 683.3 320 665.5C373.3 647.7 426.7 625.3 480 634.8C533.3 644.3 586.7 685.7 640 704.8C693.3 724 746.7 721 800 698.3C853.3 675.7 906.7 633.3 960 645C1013.3 656.7 1066.7 722.3 1120 732.3C1173.3 742.3 1226.7 696.7 1280 664.3C1333.3 632 1386.7 613 1440 617.2C1493.3 621.3 1546.7 648.7 1600 665.8C1653.3 683 1706.7 690 1760 678.7C1813.3 667.3 1866.7 637.7 1893.3 622.8L1920 608L1920 1081L1893.3 1081C1866.7 1081 1813.3 1081 1760 1081C1706.7 1081 1653.3 1081 1600 1081C1546.7 1081 1493.3 1081 1440 1081C1386.7 1081 1333.3 1081 1280 1081C1226.7 1081 1173.3 1081 1120 1081C1066.7 1081 1013.3 1081 960 1081C906.7 1081 853.3 1081 800 1081C746.7 1081 693.3 1081 640 1081C586.7 1081 533.3 1081 480 1081C426.7 1081 373.3 1081 320 1081C266.7 1081 213.3 1081 160 1081C106.7 1081 53.3 1081 26.7 1081L0 1081Z" fill="#0083cf"></path><path d="M0 872L26.7 878.3C53.3 884.7 106.7 897.3 160 888.7C213.3 880 266.7 850 320 821C373.3 792 426.7 764 480 747.8C533.3 731.7 586.7 727.3 640 733C693.3 738.7 746.7 754.3 800 784.8C853.3 815.3 906.7 860.7 960 879.7C1013.3 898.7 1066.7 891.3 1120 880.8C1173.3 870.3 1226.7 856.7 1280 841.2C1333.3 825.7 1386.7 808.3 1440 790.7C1493.3 773 1546.7 755 1600 742.5C1653.3 730 1706.7 723 1760 730C1813.3 737 1866.7 758 1893.3 768.5L1920 779L1920 1081L1893.3 1081C1866.7 1081 1813.3 1081 1760 1081C1706.7 1081 1653.3 1081 1600 1081C1546.7 1081 1493.3 1081 1440 1081C1386.7 1081 1333.3 1081 1280 1081C1226.7 1081 1173.3 1081 1120 1081C1066.7 1081 1013.3 1081 960 1081C906.7 1081 853.3 1081 800 1081C746.7 1081 693.3 1081 640 1081C586.7 1081 533.3 1081 480 1081C426.7 1081 373.3 1081 320 1081C266.7 1081 213.3 1081 160 1081C106.7 1081 53.3 1081 26.7 1081L0 1081Z" fill="#1960b1"></path><path d="M0 938L26.7 925.5C53.3 913 106.7 888 160 900C213.3 912 266.7 961 320 973.3C373.3 985.7 426.7 961.3 480 943.8C533.3 926.3 586.7 915.7 640 907C693.3 898.3 746.7 891.7 800 905C853.3 918.3 906.7 951.7 960 959.7C1013.3 967.7 1066.7 950.3 1120 955.8C1173.3 961.3 1226.7 989.7 1280 1002.5C1333.3 1015.3 1386.7 1012.7 1440 991.2C1493.3 969.7 1546.7 929.3 1600 912C1653.3 894.7 1706.7 900.3 1760 920.8C1813.3 941.3 1866.7 976.7 1893.3 994.3L1920 1012L1920 1081L1893.3 1081C1866.7 1081 1813.3 1081 1760 1081C1706.7 1081 1653.3 1081 1600 1081C1546.7 1081 1493.3 1081 1440 1081C1386.7 1081 1333.3 1081 1280 1081C1226.7 1081 1173.3 1081 1120 1081C1066.7 1081 1013.3 1081 960 1081C906.7 1081 853.3 1081 800 1081C746.7 1081 693.3 1081 640 1081C586.7 1081 533.3 1081 480 1081C426.7 1081 373.3 1081 320 1081C266.7 1081 213.3 1081 160 1081C106.7 1081 53.3 1081 26.7 1081L0 1081Z" fill="#2a3d8f"></path></svg>